HIERARCHY
ROOT Model_Hips
{
	OFFSET 0.000000 96.915077 0.000000
	CHANNELS 6 Xposition Yposition Zposition Xrotation Yrotation Zrotation
	JOINT Model_Spine
	{
		OFFSET 0.000000 11.137703 -1.289900
		CHANNELS 3 Xrotation Yrotation Zrotation
		JOINT Model_Spine1
		{
			OFFSET 0.000000 12.993942 -1.504922
			CHANNELS 3 Xrotation Yrotation Zrotation
			JOINT Model_Spine2
			{
				OFFSET 0.000000 14.850220 -1.719911
				CHANNELS 3 Xrotation Yrotation Zrotation
				JOINT Model_Neck
				{
					OFFSET 0.000000 16.706543 -1.934903
					CHANNELS 3 Xrotation Yrotation Zrotation
					JOINT Model_Head
					{
						OFFSET 0.000000 10.471298 2.002100
						CHANNELS 3 Xrotation Yrotation Zrotation
						JOINT Model_HeadTop_End
						{
							OFFSET 0.000000 20.842606 3.985100
							CHANNELS 3 Xrotation Yrotation Zrotation
							End Site
							{
								OFFSET 0.000000 21.220154 0.000000
							}
						}
					}
				}
				JOINT Model_LeftShoulder
				{
					OFFSET 7.008500 14.768600 -1.919946
					CHANNELS 3 Xrotation Yrotation Zrotation
					JOINT Model_LeftArm
					{
						OFFSET 14.126271 -3.718048 0.029937
						CHANNELS 3 Xrotation Yrotation Zrotation
						JOINT Model_LeftForeArm
						{
							OFFSET 28.282801 0.000000 0.000000
							CHANNELS 3 Xrotation Yrotation Zrotation
							JOINT Model_LeftHand
							{
								OFFSET 26.204689 0.000000 0.000000
								CHANNELS 3 Xrotation Yrotation Zrotation
								End Site
								{
									OFFSET 26.204704 0.000000 0.000000
								}
							}
						}
					}
				}
				JOINT Model_RightShoulder
				{
					OFFSET -7.008500 14.768555 -1.949840
					CHANNELS 3 Xrotation Yrotation Zrotation
					JOINT Model_RightArm
					{
						OFFSET -14.126281 -3.718018 -0.029932
						CHANNELS 3 Xrotation Yrotation Zrotation
						JOINT Model_RightForeArm
						{
							OFFSET -28.283798 0.000000 -0.000001
							CHANNELS 3 Xrotation Yrotation Zrotation
							JOINT Model_RightHand
							{
								OFFSET -26.204193 0.000000 -0.000001
								CHANNELS 3 Xrotation Yrotation Zrotation
								End Site
								{
									OFFSET -26.204208 0.000000 -0.000001
								}
							}
						}
					}
				}
			}
		}
	}
	JOINT Model_LeftUpLeg
	{
		OFFSET 8.327700 -6.193199 -0.402800
		CHANNELS 3 Xrotation Yrotation Zrotation
		JOINT Model_LeftLeg
		{
			OFFSET 0.735802 -42.108742 -0.610721
			CHANNELS 3 Xrotation Yrotation Zrotation
			JOINT Model_LeftFoot
			{
				OFFSET -0.735806 -36.833748 -0.172876
				CHANNELS 3 Xrotation Yrotation Zrotation
				JOINT Model_LeftToeBase
				{
					OFFSET -0.565857 -11.977769 16.297714
					CHANNELS 3 Xrotation Yrotation Zrotation
					JOINT Model_LeftToe_End
					{
						OFFSET -0.111712 -0.312793 7.857784
						CHANNELS 3 Xrotation Yrotation Zrotation
						End Site
						{
							OFFSET -0.111712 -0.312793 7.857784
						}
					}
				}
			}
		}
	}
	JOINT Model_RightUpLeg
	{
		OFFSET -8.327700 -6.193199 -0.516500
		CHANNELS 3 Xrotation Yrotation Zrotation
		JOINT Model_RightLeg
		{
			OFFSET -0.735785 -42.108738 -0.434061
			CHANNELS 3 Xrotation Yrotation Zrotation
			JOINT Model_RightFoot
			{
				OFFSET 0.735776 -36.833748 -0.021630
				CHANNELS 3 Xrotation Yrotation Zrotation
				JOINT Model_RightToeBase
				{
					OFFSET 0.565817 -11.977745 15.903093
					CHANNELS 3 Xrotation Yrotation Zrotation
					JOINT Model_RightToe_End
					{
						OFFSET 0.111702 -0.312791 7.811342
						CHANNELS 3 Xrotation Yrotation Zrotation
						End Site
						{
							OFFSET 0.111702 -0.312791 7.811342
						}
					}
				}
			}
		}
	}
}
MOTION
Frames: 10
Frame Time: 0.016667
65.880272 83.982338 -72.594864 0.107750 -27.494143 -13.111673 11.318824 9.291390 2.536696 0.876643 2.383879 0.197079 0.886582 2.378344 0.176483 0.459267 5.174279 0.680364 0.491080 5.181234 0.594921 0.000001 -0.000000 -0.000000 0.856742 1.009343 -17.176800 20.774924 2.309707 -59.731678 -0.000040 -50.264547 -0.000029 -0.000003 0.000000 -0.000000 0.108579 10.534378 16.779630 11.640683 -10.819268 49.109969 -0.000239 80.741647 0.000248 0.000002 0.000001 -0.000003 -49.354790 0.247600 0.755514 86.998373 4.723556 1.359158 -4.028858 1.408838 0.330601 -25.866510 -3.157737 8.349496 -0.000000 0.000001 -0.000000 -14.209561 -1.882093 4.201470 60.618393 -3.433270 -4.806656 -39.028394 -6.947240 7.006097 -15.959372 0.000023 -0.000000 -0.000001 0.000002 0.000000 
69.394867 83.309448 -76.171860 0.843981 -28.313776 -13.486050 11.183698 8.423776 3.165905 0.894321 2.119789 0.292275 0.904545 2.113231 0.274306 0.306268 5.367897 0.616967 0.341886 5.374615 0.528260 0.000001 0.000000 -0.000000 0.856455 0.956431 -17.316799 14.912087 -0.124315 -57.505405 0.000009 -48.537636 0.000022 -0.000001 -0.000000 -0.000000 0.084512 10.501641 17.098930 13.563675 -13.039734 51.954131 -0.000114 74.382768 0.000137 -0.000001 -0.000002 -0.000002 -48.435921 -1.370234 3.432779 92.722202 3.659860 1.690448 -4.100074 1.447593 0.383246 -31.159736 -3.198679 6.181161 -0.000000 -0.000003 0.000000 -19.332454 -0.493705 4.972703 61.929865 -5.593814 -5.305850 -39.226709 -7.207491 7.282070 -13.407901 -0.000023 0.000000 0.000001 -0.000000 0.000001 
72.948700 83.024521 -79.441246 1.552875 -28.271388 -13.329352 11.004662 7.180936 3.341106 0.937407 1.782867 0.313170 0.945929 1.777003 0.297893 0.235485 5.529429 0.599038 0.271562 5.536130 0.510513 0.000000 0.000000 0.000000 0.796717 0.203200 -16.864500 10.182211 -1.944097 -55.130258 0.000024 -49.199970 0.000023 -0.000002 -0.000000 -0.000000 0.069130 10.309192 17.449562 16.860163 -15.587697 54.616317 -0.000219 70.155851 0.000224 -0.000001 0.000001 -0.000002 -45.976534 -3.054683 5.125261 96.659696 1.847634 1.947524 -4.655169 1.539405 0.286808 -31.453957 -2.905167 5.267402 0.000000 -0.000001 0.000002 -23.792819 0.350294 4.388949 62.273239 -6.423270 -5.548583 -37.127498 -7.588887 8.432791 -11.715792 0.000022 0.000009 0.000001 -0.000004 -0.000001 
76.591843 83.141586 -82.434731 1.821978 -27.346194 -13.058018 11.146498 5.586223 3.207793 1.014509 1.364910 0.304802 1.020780 1.360241 0.293102 0.258784 5.672813 0.590119 0.293568 5.679301 0.500453 0.000000 0.000000 -0.000000 0.706635 -1.117911 -15.902625 6.549390 -3.249846 -52.685398 0.000044 -51.964783 0.000055 0.000002 0.000001 -0.000001 0.098162 9.841065 17.485293 21.852770 -17.652004 57.210607 -0.000214 68.254538 0.000217 -0.000000 -0.000003 -0.000002 -41.999175 -4.844049 6.106947 98.765615 -0.249892 2.265629 -5.226161 1.669972 -0.207105 -28.367157 -2.582680 5.363369 0.000004 0.000000 0.000001 -26.916462 0.314936 2.234340 61.377822 -5.405039 -5.331428 -33.275889 -7.824539 9.892977 -10.799583 -0.000001 -0.000010 0.000000 0.000002 0.000001 
80.352638 83.624954 -85.222603 1.680961 -25.899908 -13.043021 11.564528 3.846904 3.051714 1.101137 0.906677 0.309481 1.105750 0.902850 0.302697 0.374674 5.804003 0.583938 0.407936 5.810014 0.490460 0.000001 -0.000001 -0.000000 0.635244 -2.568531 -14.551122 3.920012 -4.481076 -50.216442 -0.000031 -56.145364 -0.000032 -0.000002 0.000001 -0.000001 0.200558 8.914332 16.930089 28.216290 -18.320972 59.728508 -0.000028 68.358883 0.000039 -0.000001 -0.000001 0.000001 -36.879531 -6.656971 6.925919 99.146644 -1.915354 2.761891 -5.691250 1.774657 -0.451067 -22.830954 -1.850131 5.157815 0.000001 0.000001 0.000001 -28.524637 -0.739112 -0.983196 58.658505 -2.910689 -4.587885 -28.194493 -7.773881 11.213370 -10.219690 -0.000038 -0.000009 -0.000001 -0.000003 -0.000001 
84.240654 84.436142 -87.844765 1.476354 -24.493127 -13.317847 11.879407 2.172155 3.038045 1.152780 0.458966 0.326404 1.156479 0.455993 0.325366 0.579217 5.919039 0.597230 0.612364 5.924304 0.499593 0.000001 0.000000 -0.000000 0.609480 -3.723976 -13.036680 2.227306 -5.805195 -47.609834 0.000012 -61.263928 0.000036 -0.000002 0.000001 0.000001 0.351462 7.630190 15.787250 35.111858 -17.267321 61.811019 -0.000002 69.638300 -0.000004 -0.000000 -0.000000 -0.000003 -31.195885 -8.189264 8.018759 97.821109 -2.751430 3.482102 -5.916409 1.825005 -0.291717 -15.976658 -0.865314 3.893423 0.000002 0.000002 -0.000001 -28.884255 -2.609535 -4.471338 53.508310 0.254416 -3.453623 -21.958930 -7.391503 12.387157 -9.598164 -0.000016 0.000007 0.000000 0.000003 0.000001 
88.255508 85.471329 -90.321487 1.437922 -23.627397 -13.699203 11.809221 0.664910 3.122341 1.145528 0.051956 0.324114 1.149095 0.050825 0.328412 0.842859 6.017127 0.626617 0.878131 6.021058 0.526839 0.000001 0.000000 0.000000 0.619290 -4.323468 -11.688053 1.373003 -6.957895 -44.632865 0.000024 -67.133847 0.000028 -0.000001 0.000001 -0.000000 0.485932 6.529912 14.332585 41.799498 -15.427323 63.278130 -0.000127 71.587588 0.000146 -0.000000 -0.000000 -0.000001 -25.500026 -8.984352 9.407331 94.955919 -2.971162 4.398543 -6.119359 1.835802 0.073904 -9.725089 -0.258702 2.216841 -0.000000 -0.000001 0.000002 -28.407803 -4.834162 -7.558404 45.718083 3.276470 -2.163896 -14.230353 -6.617685 13.595666 -8.584656 0.000008 0.000006 0.000001 0.000002 0.000000 
92.260704 86.301003 -92.710014 1.517163 -23.599248 -14.017611 11.285266 -0.572623 3.053525 1.098830 -0.274823 0.286864 1.103239 -0.273669 0.295079 1.119743 6.095901 0.653436 1.156883 6.097967 0.555658 0.000000 -0.000000 -0.000001 0.636237 -4.273825 -10.826722 1.330049 -7.291513 -40.933259 -0.000114 -74.425027 -0.000119 -0.000000 -0.000002 0.000003 0.571077 6.142506 12.908013 48.537947 -14.568520 64.757911 -0.000263 74.935180 0.000283 -0.000001 0.000001 -0.000001 -20.199480 -8.835985 10.877875 91.422014 -3.019532 5.417042 -7.192935 1.813723 0.461177 -5.949606 -0.061537 0.967136 -0.000001 -0.000003 0.000003 -27.902648 -6.812195 -9.886292 36.573662 5.544999 -0.931607 -5.137993 -5.428094 14.654722 -6.757525 0.000023 0.000004 0.000001 -0.000002 0.000000 
96.267899 87.050972 -94.996521 1.641098 -24.488404 -14.183332 10.441107 -1.276591 2.734924 1.039170 -0.448990 0.228656 1.045006 -0.446421 0.238784 1.347810 6.140298 0.640423 1.384204 6.140341 0.549402 0.000001 -0.000002 0.000001 0.642260 -3.628426 -10.670441 1.406800 -7.263782 -36.871379 0.000329 -81.790436 0.000366 0.000001 0.000002 0.000003 0.622854 6.408642 11.753166 54.561327 -15.233017 66.719767 -0.000051 78.444108 0.000059 -0.000001 0.000000 -0.000000 -15.359743 -7.715084 12.112189 87.053356 -2.876162 6.376924 -8.883707 1.743859 0.868111 -5.490807 0.000275 0.001200 -0.000005 -0.000000 0.000001 -26.614498 -8.615222 -11.090950 24.617455 6.463698 -0.154968 6.435993 -3.582885 15.296176 -4.134222 -0.000005 0.000002 0.000000 0.000000 -0.000001 
99.942863 87.073784 -97.226479 1.958486 -26.156701 -14.059931 8.709128 -1.309082 1.793342 1.287834 -0.396078 0.349944 1.296855 -0.390976 0.354513 1.487046 6.157678 0.557253 1.517868 6.156463 0.477959 -0.000000 0.000000 -0.000000 0.643633 -2.566523 -11.296499 1.101516 -6.764414 -32.697704 6.437668 -89.934788 6.440328 -0.000003 -0.000001 -0.000002 0.660854 6.850273 10.960597 60.626986 -17.641737 69.529919 -0.000972 83.087025 0.001006 0.000001 0.000000 0.000002 -11.228872 -6.220623 12.968587 82.903115 -2.142156 7.107068 -11.329535 1.639850 1.110658 -9.205808 0.211653 -1.475151 -0.000002 -0.000001 -0.000001 -27.872597 -9.077473 -11.750276 18.559432 5.688494 0.091080 13.034471 -2.538961 14.897339 -1.885165 -0.000024 0.000000 -0.000000 -0.000000 0.000001 
